<svg xmlns="http://www.w3.org/2000/svg" viewBox="0 0 823.52 148.3"><defs><style>.cls-1{fill:#231815;}</style></defs><title>購票資訊</title><g id="圖層_2" data-name="圖層 2"><g id="圖層_1-2" data-name="圖層 1"><path d="M243.44,35.36V25.57a10.45,10.45,0,0,1,3.7-8.09,14,14,0,0,1,2-1.42c.82-.48,1.33-.78,1.53-.88a18.37,18.37,0,0,0,2.14-1.29,5.13,5.13,0,0,0,1.7-3.8V8.59a3.26,3.26,0,0,0-.75-2.5,2.83,2.83,0,0,0-2-.6,2.94,2.94,0,0,0-2.05.6,3.35,3.35,0,0,0-.75,2.5v3.05h-5.5V8.59a8.46,8.46,0,0,1,2.5-6.54,9.22,9.22,0,0,1,11.59,0A8.46,8.46,0,0,1,260,8.59v1.5a10.22,10.22,0,0,1-.95,4.34,11.1,11.1,0,0,1-2.75,3.65,12.44,12.44,0,0,1-1.57,1.2,17.06,17.06,0,0,1-1.68.9l-1.22.65a5.63,5.63,0,0,0-1.17.85,5,5,0,0,0-1.75,3.89v4.3h11.14v5.49Z"/><path d="M272.61,35.76a8.13,8.13,0,0,1-5.79-2,8.6,8.6,0,0,1-2.5-6.54V8.59a8.63,8.63,0,0,1,2.5-6.54,9.22,9.22,0,0,1,11.59,0,8.66,8.66,0,0,1,2.49,6.54V27.17a8.63,8.63,0,0,1-2.49,6.54A8.16,8.16,0,0,1,272.61,35.76Zm0-30.27a3,3,0,0,0-2.05.6,3.35,3.35,0,0,0-.75,2.5V27.17a3.35,3.35,0,0,0,.75,2.5,3,3,0,0,0,2.05.6,2.84,2.84,0,0,0,2.05-.6,3.24,3.24,0,0,0,.75-2.5V8.59a3.26,3.26,0,0,0-.75-2.5A2.84,2.84,0,0,0,272.61,5.49Z"/><path d="M285.1,7.64,293,.4h3.15v35h-5.5V10l-5.59,5.09Z"/><path d="M308.92,35.76a8.13,8.13,0,0,1-5.79-2,8.6,8.6,0,0,1-2.5-6.54V24.82a10.18,10.18,0,0,1,3.3-7.64,10.31,10.31,0,0,1-3.3-7.69v-.9a8.63,8.63,0,0,1,2.5-6.54,9.22,9.22,0,0,1,11.59,0,8.66,8.66,0,0,1,2.49,6.54v.7a10.53,10.53,0,0,1-3.44,7.89,10.3,10.3,0,0,1,2.57,3.57,10.73,10.73,0,0,1,.87,4.27v2.15a8.63,8.63,0,0,1-2.49,6.54A8.16,8.16,0,0,1,308.92,35.76Zm0-30.27a2.93,2.93,0,0,0-2,.6,3.35,3.35,0,0,0-.75,2.5v.9a5.2,5.2,0,0,0,1.69,3.85,8.63,8.63,0,0,0,1,.74,9.37,9.37,0,0,0,1.15-.89,5.09,5.09,0,0,0,1.75-3.9v-.7a3.35,3.35,0,0,0-.75-2.5A3,3,0,0,0,308.92,5.49Zm-.1,14.79c-.36.26-.7.51-1,.75a4.94,4.94,0,0,0-1.69,3.79v2.35a3.35,3.35,0,0,0,.75,2.5,3.79,3.79,0,0,0,4.09,0,3.35,3.35,0,0,0,.75-2.5V25A5,5,0,0,0,310,21.13,8.14,8.14,0,0,0,308.82,20.28Z"/><path d="M327,32.71a2.8,2.8,0,1,1-.82-2A2.7,2.7,0,0,1,327,32.71Z"/><path d="M339.39,35.76a8.12,8.12,0,0,1-5.79-2,8.6,8.6,0,0,1-2.5-6.54V22.63h5.49v4.54a3.35,3.35,0,0,0,.75,2.5,3,3,0,0,0,2.05.6,2.85,2.85,0,0,0,2.05-.6,3.24,3.24,0,0,0,.75-2.5V25a5.26,5.26,0,0,0-1.85-4,16.61,16.61,0,0,0-2.1-1.3,20.11,20.11,0,0,1-3.45-2.2,11.07,11.07,0,0,1-2.74-3.65,10.16,10.16,0,0,1-.95-4.39V8.59a8.63,8.63,0,0,1,2.5-6.54,9.2,9.2,0,0,1,11.58,0,8.63,8.63,0,0,1,2.5,6.54v3.05h-5.49V8.59a3.26,3.26,0,0,0-.75-2.5,2.85,2.85,0,0,0-2.05-.6,3,3,0,0,0-2.05.6,3.35,3.35,0,0,0-.75,2.5v.85a5.13,5.13,0,0,0,1.85,4,16.06,16.06,0,0,0,1.95,1.19,20.13,20.13,0,0,1,3.59,2.3,10.42,10.42,0,0,1,3.7,8.09v2.2a8.6,8.6,0,0,1-2.5,6.54A8.12,8.12,0,0,1,339.39,35.76Z"/><path d="M366.51,5.89h-9v8.79h6.19v5.5h-6.19v9.69h9v5.49H352V.4h14.48Z"/><path d="M376.55,35.36h-5.5V.4h8.3a8.15,8.15,0,0,1,5.79,2.1A8.39,8.39,0,0,1,387.64,9v3.8a8.46,8.46,0,0,1-2.5,6.54,8.15,8.15,0,0,1-5.79,2.05h-2.8Zm0-19.48h2.8a2.93,2.93,0,0,0,2-.6,3.31,3.31,0,0,0,.75-2.49V9a3.46,3.46,0,0,0-.75-2.5,2.93,2.93,0,0,0-2-.6h-2.8Z"/><path d="M407.07.4V5.89h-5.6V35.36H396V5.89h-5.6V.4Z"/><path d="M425.15,5.89h-9v8.79h6.19v5.5h-6.19v9.69h9v5.49H410.66V.4h14.49Z"/><path d="M449.62.4h3.15v35h-5.5V17.93l-4.44,11.94h-3.2l-4.45-11.94V35.36h-5.49V.4h3.15l8.39,19.38Z"/><path d="M466.2,35.36h-8.29V.4h7.54a8.32,8.32,0,0,1,5.74,2,6.72,6.72,0,0,1,1.9,2.79,9.66,9.66,0,0,1,.65,3.7v3.25a7,7,0,0,1-2,5.39c1.84,1.3,2.75,3.4,2.75,6.29V27a9.24,9.24,0,0,1-.65,3.65,6.66,6.66,0,0,1-1.9,2.79A8.2,8.2,0,0,1,466.2,35.36Zm-2.8-20.18h2.05a3,3,0,0,0,2.05-.6,3.43,3.43,0,0,0,.75-2.49V8.84a3.33,3.33,0,0,0-.7-2.4,3.15,3.15,0,0,0-2.1-.55H463.4Zm0,14.69h2.8a3.09,3.09,0,0,0,2.1-.55A3.17,3.17,0,0,0,469,27v-3.2a3.32,3.32,0,0,0-.75-2.49,3,3,0,0,0-2.05-.6h-2.8Z"/><path d="M493.42,5.89h-9v8.79h6.19v5.5h-6.19v9.69h9v5.49H478.94V.4h14.48Z"/><path d="M514.4,35.36h-5.6l-2.84-14h-2.5v14H498V.4h8.29a8.15,8.15,0,0,1,5.79,2.1A8.39,8.39,0,0,1,514.55,9v3.75a8.46,8.46,0,0,1-2.5,6.54,5.26,5.26,0,0,1-.8.65ZM509.05,9a3.46,3.46,0,0,0-.75-2.5,2.93,2.93,0,0,0-2-.6h-2.8v9.94h2.8a2.93,2.93,0,0,0,2-.6,3.31,3.31,0,0,0,.75-2.49Z"/><path d="M524.29,32.71a2.71,2.71,0,0,1-.83,2,2.78,2.78,0,0,1-3.94,0,2.76,2.76,0,0,1,0-3.95,2.8,2.8,0,0,1,4.77,2Z"/><path d="M536.77,35.76a8.13,8.13,0,0,1-5.79-2,8.6,8.6,0,0,1-2.5-6.54V24.82a10.18,10.18,0,0,1,3.3-7.64,10.31,10.31,0,0,1-3.3-7.69v-.9A8.63,8.63,0,0,1,531,2.05a9.22,9.22,0,0,1,11.59,0,8.66,8.66,0,0,1,2.49,6.54v.7a10.53,10.53,0,0,1-3.44,7.89,10.3,10.3,0,0,1,2.57,3.57,10.73,10.73,0,0,1,.87,4.27v2.15a8.63,8.63,0,0,1-2.49,6.54A8.16,8.16,0,0,1,536.77,35.76Zm0-30.27a2.93,2.93,0,0,0-2,.6,3.35,3.35,0,0,0-.75,2.5v.9a5.2,5.2,0,0,0,1.69,3.85,8.63,8.63,0,0,0,1,.74,10.2,10.2,0,0,0,1.15-.89,5.09,5.09,0,0,0,1.75-3.9v-.7a3.35,3.35,0,0,0-.75-2.5A3,3,0,0,0,536.77,5.49Zm-.1,14.79c-.36.26-.7.51-1,.75A4.94,4.94,0,0,0,534,24.82v2.35a3.35,3.35,0,0,0,.75,2.5,3.79,3.79,0,0,0,4.09,0,3.35,3.35,0,0,0,.75-2.5V25a5,5,0,0,0-1.75-3.89A8.14,8.14,0,0,0,536.67,20.28Z"/><path d="M548,14.68h9v5.5h-9Z"/><path d="M565.44,24.47v2.75a3.35,3.35,0,0,0,.75,2.5,3,3,0,0,0,2,.6,2.85,2.85,0,0,0,2-.6,3.24,3.24,0,0,0,.75-2.5V21a10.2,10.2,0,0,1-2.8.35,8.16,8.16,0,0,1-5.8-2.05A8.45,8.45,0,0,1,560,12.79V8.64a8.66,8.66,0,0,1,2.49-6.54A9.22,9.22,0,0,1,574,2.1a8.63,8.63,0,0,1,2.5,6.54V27.22a8.6,8.6,0,0,1-2.5,6.54,9.22,9.22,0,0,1-11.59,0A8.63,8.63,0,0,1,560,27.22V24.47ZM571,12.79V8.64a3.26,3.26,0,0,0-.75-2.5,2.85,2.85,0,0,0-2-.6,3,3,0,0,0-2,.6,3.35,3.35,0,0,0-.75,2.5v4.15a3.31,3.31,0,0,0,.75,2.49,3,3,0,0,0,2,.6,2.85,2.85,0,0,0,2-.6A3.22,3.22,0,0,0,571,12.79Z"/><path d="M29.13,55.83v4.44H23.24V90.94H18.79V60.27H13V55.83Zm-.2.2H13.15v4H19V90.74H23V60.07h5.89Z"/><path d="M48.71,90.94H44.06L39.32,76.35h-2.2V90.94H32.67V55.78h8a7.89,7.89,0,0,1,5.59,2c1.6,1.44,2.4,3.55,2.4,6.35v3.94a8.13,8.13,0,0,1-2.4,6.3,6.85,6.85,0,0,1-2.45,1.49ZM46.16,74.26a8.19,8.19,0,0,0,2.3-6.2V64.12a8.26,8.26,0,0,0-2.3-6.25A8.14,8.14,0,0,0,40.67,56h-7.8V90.74h4.05V76.15h2.5l4.74,14.59h4.25l-4.9-15A7.07,7.07,0,0,0,46.16,74.26Zm-9.24-2.15V60h3.75a3.73,3.73,0,0,1,2.82,1,4.46,4.46,0,0,1,.92,3.12v3.94a4.4,4.4,0,0,1-.9,3.1,3.77,3.77,0,0,1-2.84,1ZM43.36,71a4.19,4.19,0,0,0,.85-3V64.12a4.27,4.27,0,0,0-.85-3,3.47,3.47,0,0,0-2.69-.93H37.12V71.91h3.55A3.53,3.53,0,0,0,43.36,71Z"/><path d="M66.29,90.94,64.94,83.7H57.85l-1.4,7.24H51.9l7.34-35.16h4.3l7.29,35.16Zm.2-.2h4.14L63.34,56h-3.9L52.1,90.74h4.15l1.4-7.24h7.49Zm-8-11.29,2.94-15.68,3,15.68Zm.2-.2h5.49L61.39,64.87Z"/><path d="M79,70.21V90.94H74.58V55.78h2.5l9.59,20.77V55.78h4.44V90.94h-2.5Zm-.2-.9,9.89,21.43h2.2V56h-4V77.45L77,56h-2.2V90.74h4Z"/><path d="M100.3,90.86a7.48,7.48,0,0,1-2.5-1.47c-1.63-1.43-2.44-3.55-2.44-6.34V78.2H99.8v4.85a4.28,4.28,0,0,0,.85,2.94,3.42,3.42,0,0,0,2.7,1,3.57,3.57,0,0,0,2.72-.92,4.25,4.25,0,0,0,.87-3v-2.3a6,6,0,0,0-.35-2.27,6.12,6.12,0,0,0-.9-1.58,6.51,6.51,0,0,0-1.34-1.1c-.54-.33-1.24-.74-2.1-1.24-1.07-.6-1.94-1.14-2.62-1.6a9.4,9.4,0,0,1-1.88-1.7,9.28,9.28,0,0,1-2.39-6.64v-1a8.16,8.16,0,0,1,2.44-6.34,7.34,7.34,0,0,1,2.5-1.48,9.32,9.32,0,0,1,6.14,0,7.34,7.34,0,0,1,2.5,1.48,8.17,8.17,0,0,1,2.45,6.34V67h-4.45V63.67a4.22,4.22,0,0,0-.87-3,3.57,3.57,0,0,0-2.72-.93,3.46,3.46,0,0,0-2.7.95,4.31,4.31,0,0,0-.85,3v1a5.57,5.57,0,0,0,1.2,3.69,7.28,7.28,0,0,0,1.5,1.2c.63.4,1.26.78,1.9,1.15A25.17,25.17,0,0,1,107,72.21a10.74,10.74,0,0,1,2,1.8,9.54,9.54,0,0,1,2.45,6.74v2.3c0,2.79-.82,4.91-2.45,6.34a7.48,7.48,0,0,1-2.5,1.47,9.16,9.16,0,0,1-6.14,0Zm8.54-1.57q2.35-2.1,2.35-6.24v-2.3a9.39,9.39,0,0,0-2.4-6.64,9.55,9.55,0,0,0-1.92-1.73,29.75,29.75,0,0,0-2.57-1.52c-.9-.5-1.6-.92-2.1-1.27a6.7,6.7,0,0,1-1.3-1.18,5.44,5.44,0,0,1-1.3-3.79v-1a4.49,4.49,0,0,1,.92-3.1,3.71,3.71,0,0,1,2.83-1,3.79,3.79,0,0,1,2.87,1,4.46,4.46,0,0,1,.92,3.12v3.09h4V63.67a8.23,8.23,0,0,0-2.35-6.25,8.86,8.86,0,0,0-10.94,0,8.26,8.26,0,0,0-2.34,6.25v1a9.28,9.28,0,0,0,2.29,6.54,9.6,9.6,0,0,0,1.88,1.62c.68.45,1.55,1,2.62,1.58.86.5,1.56.92,2.1,1.27a7.62,7.62,0,0,1,1.39,1.17,5.91,5.91,0,0,1,.93,1.55,6.36,6.36,0,0,1,.37,2.4v2.3a4.46,4.46,0,0,1-.92,3.12,3.79,3.79,0,0,1-2.87,1,3.67,3.67,0,0,1-2.83-1,4.44,4.44,0,0,1-.92-3.09V78.4h-4v4.65q0,4.14,2.34,6.24a8.82,8.82,0,0,0,10.94,0Z"/><path d="M129.67,60.27h-9.54V70.66h6.64v4.45h-6.64V90.94h-4.45V55.83h14Zm-.2-.2V56H115.88V90.74h4.05V74.91h6.64v-4h-6.64V60.07Z"/><path d="M135.56,89.39a8.16,8.16,0,0,1-2.4-6.34V63.67a8.35,8.35,0,0,1,2.4-6.34,8.83,8.83,0,0,1,11.19,0,8.35,8.35,0,0,1,2.4,6.34V83.05a8.16,8.16,0,0,1-2.4,6.34,8.83,8.83,0,0,1-11.19,0Zm11.09-.1a8.23,8.23,0,0,0,2.3-6.24V63.67a8.47,8.47,0,0,0-2.3-6.25,8.93,8.93,0,0,0-11,0,8.47,8.47,0,0,0-2.3,6.25V83.05a8.23,8.23,0,0,0,2.3,6.24,8.9,8.9,0,0,0,11,0ZM144,60.55a4.46,4.46,0,0,1,.92,3.12V83.05a4.46,4.46,0,0,1-.92,3.12,4.6,4.6,0,0,1-5.65,0,4.46,4.46,0,0,1-.92-3.12V63.67a4.46,4.46,0,0,1,.92-3.12,4.56,4.56,0,0,1,5.65,0Zm-5.52.15a4.27,4.27,0,0,0-.85,3V83.05a4.3,4.3,0,0,0,.85,3,4.41,4.41,0,0,0,5.39,0,4.3,4.3,0,0,0,.85-3V63.67a4.27,4.27,0,0,0-.85-3,4.37,4.37,0,0,0-5.39,0Z"/><path d="M169.82,90.94h-4.64l-4.75-14.59h-2.19V90.94h-4.45V55.78h8a7.91,7.91,0,0,1,5.6,2c1.6,1.44,2.39,3.55,2.39,6.35v3.94a8.12,8.12,0,0,1-2.39,6.3,6.85,6.85,0,0,1-2.45,1.49Zm-2.54-16.68a8.18,8.18,0,0,0,2.29-6.2V64.12a8.25,8.25,0,0,0-2.29-6.25,8.15,8.15,0,0,0-5.5-1.89H154V90.74h4V76.15h2.49l4.75,14.59h4.24l-4.89-15A7.07,7.07,0,0,0,167.28,74.26ZM158,72.11V60h3.74a3.7,3.7,0,0,1,2.82,1,4.41,4.41,0,0,1,.93,3.12v3.94a4.4,4.4,0,0,1-.9,3.1,3.78,3.78,0,0,1-2.85,1Zm6.44-1.1a4.19,4.19,0,0,0,.85-3V64.12a4.27,4.27,0,0,0-.85-3,3.51,3.51,0,0,0-2.7-.93h-3.54V71.91h3.54A3.57,3.57,0,0,0,164.48,71Z"/><path d="M185.41,78.7l8.69-22.92h2.55V90.94H192.2V71.66l-5.59,15h-2.45l-5.6-15V90.94h-4.44V55.78h2.55Zm0,.6L176.57,56h-2.25V90.74h4V70.56l5.9,15.88h2.25l5.89-15.88V90.74h4V56H194.2Z"/><path d="M206,90.94h-4.44V55.78H206Zm-.2-.2V56h-4V90.74Z"/><path d="M215.37,70.21V90.94h-4.44V55.78h2.5L223,76.55V55.78h4.44V90.94H225Zm-.2-.9,9.89,21.43h2.2V56h-4V77.45L213.33,56h-2.2V90.74h4Z"/><path d="M234.5,89.39c-1.63-1.43-2.44-3.55-2.44-6.34V63.67a8.16,8.16,0,0,1,2.44-6.34,8.83,8.83,0,0,1,11.19,0,8.35,8.35,0,0,1,2.4,6.34V67h-4.45V63.67a4.37,4.37,0,0,0-.84-3,3.47,3.47,0,0,0-2.7-.95,3.57,3.57,0,0,0-2.72.93,4.17,4.17,0,0,0-.88,3V83.05a4.2,4.2,0,0,0,.88,3,3.57,3.57,0,0,0,2.72.92,3.44,3.44,0,0,0,2.7-1,4.34,4.34,0,0,0,.84-2.94V75.61H240V71.16h8.09V83.05a8.16,8.16,0,0,1-2.4,6.34,8.83,8.83,0,0,1-11.19,0Zm11.09-.1a8.23,8.23,0,0,0,2.3-6.24V71.36H240.2v4h3.64v7.64a4.39,4.39,0,0,1-.92,3.09,3.66,3.66,0,0,1-2.82,1,3.77,3.77,0,0,1-2.87-1,4.41,4.41,0,0,1-.93-3.12V63.67a4.41,4.41,0,0,1,.93-3.12,3.77,3.77,0,0,1,2.87-1,3.7,3.7,0,0,1,2.82,1,4.44,4.44,0,0,1,.92,3.1v3.09h4V63.67a8.47,8.47,0,0,0-2.3-6.25,8.93,8.93,0,0,0-11,0,8.26,8.26,0,0,0-2.34,6.25V83.05q0,4.14,2.34,6.24a8.9,8.9,0,0,0,11,0Z"/><path d="M273.16,55.78h4.45V90.94h-4.45V75.16h-7.09V90.94h-4.45V55.78h4.45V70.71h7.09Zm.2.2V70.91h-7.49V56h-4.05V90.74h4.05V75h7.49V90.74h4.05V56Z"/><path d="M296.54,60.22H287V70.71h6.64v4.45H287V86.49h9.54v4.45h-14V55.78h14Zm-.2-.2V56H282.75V90.74h13.59v-4H286.8V75h6.64v-4H286.8V60Z"/><path d="M314.22,90.94l-1.35-7.24h-7.09l-1.4,7.24h-4.55l7.34-35.16h4.3l7.29,35.16Zm.2-.2h4.14L311.27,56h-3.9L300,90.74h4.15l1.4-7.24h7.49Zm-8-11.29,2.94-15.68,2.95,15.68Zm.2-.2h5.49l-2.75-14.38Z"/><path d="M336.54,90.94h-14V55.83H327V86.49h9.54Zm-.2-.2v-4H326.8V56h-4V90.74Z"/><path d="M352.38,55.83v4.44h-5.9V90.94H342V60.27h-5.85V55.83Zm-.2.2H336.39v4h5.85V90.74h4V60.07h5.9Z"/><path d="M367.46,55.78h4.44V90.94h-4.44V75.16h-7.09V90.94h-4.45V55.78h4.45V70.71h7.09Zm.2.2V70.91h-7.49V56h-4.05V90.74h4.05V75h7.49V90.74h4V56Z"/><path d="M379,89.39c-1.64-1.43-2.45-3.55-2.45-6.34V63.62A8.17,8.17,0,0,1,379,57.27a7.58,7.58,0,0,1,5.54-2,7.87,7.87,0,0,1,5.59,2,8.21,8.21,0,0,1,2.45,6.35v3.29h-4.44V63.62a4.22,4.22,0,0,0-.88-3,3.57,3.57,0,0,0-2.72-.93,3.47,3.47,0,0,0-2.7,1,4.37,4.37,0,0,0-.85,2.95V83.05a4.34,4.34,0,0,0,.85,2.94,3.44,3.44,0,0,0,2.7,1,3.57,3.57,0,0,0,2.72-.92,4.25,4.25,0,0,0,.88-3v-4.8h4.44v4.8c0,2.79-.82,4.91-2.45,6.34a7.88,7.88,0,0,1-5.59,2A7.59,7.59,0,0,1,379,89.39Zm11-.1q2.36-2.1,2.35-6.24v-4.6h-4v4.6a4.41,4.41,0,0,1-.93,3.12,3.79,3.79,0,0,1-2.87,1,3.63,3.63,0,0,1-2.82-1,4.39,4.39,0,0,1-.93-3.09V63.62a4.44,4.44,0,0,1,.93-3.1,3.67,3.67,0,0,1,2.82-1,3.79,3.79,0,0,1,2.87,1,4.41,4.41,0,0,1,.93,3.12v3.09h4V63.62A8.19,8.19,0,0,0,390,57.38a8.06,8.06,0,0,0-5.49-1.9,7.88,7.88,0,0,0-5.44,1.9,8.19,8.19,0,0,0-2.35,6.24V83.05q0,4.14,2.35,6.24a7.88,7.88,0,0,0,5.44,1.9A8.06,8.06,0,0,0,390,89.29Z"/><path d="M410.21,90.94l-1.35-7.24h-7.09l-1.4,7.24h-4.54l7.34-35.16h4.3l7.29,35.16Zm.2-.2h4.15L407.27,56h-3.9L396,90.74h4.14l1.4-7.24h7.49Zm-8-11.29,2.95-15.68,2.94,15.68Zm.2-.2h5.49l-2.74-14.38Z"/><path d="M434.59,90.94h-4.65L425.2,76.35H423V90.94h-4.45V55.78h8a7.9,7.9,0,0,1,5.6,2c1.6,1.44,2.4,3.55,2.4,6.35v3.94a8.13,8.13,0,0,1-2.4,6.3,6.85,6.85,0,0,1-2.45,1.49ZM432,74.26a8.19,8.19,0,0,0,2.3-6.2V64.12a8.26,8.26,0,0,0-2.3-6.25,8.15,8.15,0,0,0-5.5-1.89h-7.79V90.74h4.05V76.15h2.5L430,90.74h4.25l-4.9-15A7.07,7.07,0,0,0,432,74.26Zm-9.24-2.15V60h3.74a3.74,3.74,0,0,1,2.83,1,4.46,4.46,0,0,1,.92,3.12v3.94a4.4,4.4,0,0,1-.9,3.1,3.78,3.78,0,0,1-2.85,1Zm6.44-1.1a4.19,4.19,0,0,0,.85-3V64.12a4.27,4.27,0,0,0-.85-3,3.49,3.49,0,0,0-2.7-.93H423V71.91h3.54A3.56,3.56,0,0,0,429.24,71Z"/><path d="M452.86,60.22h-9.54V70.71H450v4.45h-6.65V86.49h9.54v4.45h-14V55.78h14Zm-.19-.2V56H439.08V90.74h13.59v-4h-9.54V75h6.64v-4h-6.64V60Z"/><path d="M481.08,55.83v4.44h-5.89V90.94h-4.44V60.27H464.9V55.83Zm-.2.2H465.1v4h5.84V90.74H475V60.07h5.89Z"/><path d="M500.66,90.94H496l-4.75-14.59h-2.2V90.94h-4.44V55.78h8a7.91,7.91,0,0,1,5.6,2c1.59,1.44,2.39,3.55,2.39,6.35v3.94a8.16,8.16,0,0,1-2.39,6.3,6.85,6.85,0,0,1-2.45,1.49Zm-2.54-16.68a8.18,8.18,0,0,0,2.29-6.2V64.12a8.25,8.25,0,0,0-2.29-6.25,8.15,8.15,0,0,0-5.5-1.89h-7.79V90.74h4.05V76.15h2.49l4.75,14.59h4.24l-4.89-15A7.15,7.15,0,0,0,498.12,74.26Zm-9.24-2.15V60h3.74a3.7,3.7,0,0,1,2.82,1,4.41,4.41,0,0,1,.93,3.12v3.94a4.4,4.4,0,0,1-.9,3.1,3.78,3.78,0,0,1-2.85,1Zm6.44-1.1a4.24,4.24,0,0,0,.85-3V64.12a4.32,4.32,0,0,0-.85-3,3.51,3.51,0,0,0-2.7-.93h-3.55V71.91h3.55A3.57,3.57,0,0,0,495.32,71Z"/><path d="M518.24,90.94l-1.35-7.24H509.8l-1.4,7.24h-4.54l7.34-35.16h4.3l7.29,35.16Zm.2-.2h4.15L515.3,56h-3.9l-7.34,34.76h4.14l1.4-7.24h7.49Zm-8-11.29,3-15.68,2.94,15.68Zm.2-.2h5.5l-2.75-14.38Z"/><path d="M531,70.21V90.94h-4.45V55.78H529l9.59,20.77V55.78h4.44V90.94h-2.49Zm-.2-.9,9.89,21.43h2.2V56h-4V77.45L528.93,56h-2.2V90.74h4Z"/><path d="M552.26,90.86a7.48,7.48,0,0,1-2.5-1.47c-1.63-1.43-2.45-3.55-2.45-6.34V78.2h4.45v4.85a4.28,4.28,0,0,0,.85,2.94,3.4,3.4,0,0,0,2.69,1A3.57,3.57,0,0,0,558,86a4.2,4.2,0,0,0,.88-3v-2.3a6.25,6.25,0,0,0-.35-2.27,6.12,6.12,0,0,0-.9-1.58,6.87,6.87,0,0,0-1.35-1.1c-.53-.33-1.23-.74-2.1-1.24-1.06-.6-1.94-1.14-2.62-1.6a10,10,0,0,1-4.27-8.34v-1a8.17,8.17,0,0,1,2.45-6.34,7.34,7.34,0,0,1,2.5-1.48,8.83,8.83,0,0,1,3-.52,9,9,0,0,1,3.1.52,7.43,7.43,0,0,1,2.5,1.48,8.16,8.16,0,0,1,2.44,6.34V67H558.9V63.67a4.17,4.17,0,0,0-.88-3,3.57,3.57,0,0,0-2.72-.93,3.44,3.44,0,0,0-2.69.95,4.31,4.31,0,0,0-.85,3v1a5.57,5.57,0,0,0,1.2,3.69,7.19,7.19,0,0,0,1.49,1.2c.64.4,1.27.78,1.9,1.15a24.12,24.12,0,0,1,2.57,1.55,10.48,10.48,0,0,1,2,1.8,9.53,9.53,0,0,1,2.44,6.74v2.3c0,2.79-.81,4.91-2.44,6.34a7.58,7.58,0,0,1-2.5,1.47,9.05,9.05,0,0,1-3.1.53A8.84,8.84,0,0,1,552.26,90.86Zm8.54-1.57c1.56-1.4,2.35-3.48,2.35-6.24v-2.3a9.39,9.39,0,0,0-2.4-6.64,9.61,9.61,0,0,0-1.93-1.73,28.3,28.3,0,0,0-2.57-1.52c-.9-.5-1.6-.92-2.1-1.27a6.36,6.36,0,0,1-1.29-1.18,5.44,5.44,0,0,1-1.3-3.79v-1a4.44,4.44,0,0,1,.92-3.1,3.7,3.7,0,0,1,2.82-1,3.81,3.81,0,0,1,2.88,1,4.46,4.46,0,0,1,.92,3.12v3.09h4V63.67a8.26,8.26,0,0,0-2.35-6.25,8,8,0,0,0-5.5-1.89,7.92,7.92,0,0,0-5.44,1.89,8.23,8.23,0,0,0-2.35,6.25v1a9.29,9.29,0,0,0,2.3,6.54,9.55,9.55,0,0,0,1.87,1.62c.68.45,1.56,1,2.62,1.58.87.5,1.57.92,2.1,1.27a7.69,7.69,0,0,1,1.4,1.17,5.63,5.63,0,0,1,.92,1.55,6.34,6.34,0,0,1,.38,2.4v2.3a4.46,4.46,0,0,1-.92,3.12,3.81,3.81,0,0,1-2.88,1,3.66,3.66,0,0,1-2.82-1,4.39,4.39,0,0,1-.92-3.09V78.4h-4v4.65q0,4.14,2.35,6.24a7.88,7.88,0,0,0,5.44,1.9A8,8,0,0,0,560.8,89.29Z"/><path d="M569.89,89.39c-1.64-1.43-2.45-3.55-2.45-6.34V63.62a8.17,8.17,0,0,1,2.45-6.35,7.58,7.58,0,0,1,5.54-2,7.87,7.87,0,0,1,5.59,2,8.21,8.21,0,0,1,2.45,6.35v3.29H579V63.62a4.22,4.22,0,0,0-.88-3,3.57,3.57,0,0,0-2.72-.93,3.47,3.47,0,0,0-2.7,1,4.37,4.37,0,0,0-.85,2.95V83.05a4.34,4.34,0,0,0,.85,2.94,3.44,3.44,0,0,0,2.7,1,3.57,3.57,0,0,0,2.72-.92,4.25,4.25,0,0,0,.88-3v-4.8h4.44v4.8c0,2.79-.82,4.91-2.45,6.34a7.88,7.88,0,0,1-5.59,2A7.59,7.59,0,0,1,569.89,89.39Zm11-.1q2.36-2.1,2.35-6.24v-4.6h-4v4.6a4.41,4.41,0,0,1-.93,3.12,3.77,3.77,0,0,1-2.87,1,3.63,3.63,0,0,1-2.82-1,4.39,4.39,0,0,1-.93-3.09V63.62a4.44,4.44,0,0,1,.93-3.1,3.67,3.67,0,0,1,2.82-1,3.77,3.77,0,0,1,2.87,1,4.41,4.41,0,0,1,.93,3.12v3.09h4V63.62a8.19,8.19,0,0,0-2.35-6.24,8.06,8.06,0,0,0-5.49-1.9,7.88,7.88,0,0,0-5.44,1.9,8.19,8.19,0,0,0-2.35,6.24V83.05q0,4.14,2.35,6.24a7.88,7.88,0,0,0,5.44,1.9A8.06,8.06,0,0,0,580.92,89.29Z"/><path d="M601.9,60.22h-9.54V70.71H599v4.45h-6.64V86.49h9.54v4.45h-14V55.78h14Zm-.2-.2V56H588.12V90.74H601.7v-4h-9.54V75h6.64v-4h-6.64V60Z"/><path d="M610.79,70.21V90.94h-4.44V55.78h2.49l9.59,20.77V55.78h4.45V90.94h-2.5Zm-.2-.9,9.89,21.43h2.2V56h-4V77.45L608.74,56h-2.19V90.74h4Z"/><path d="M627.77,90.94V55.78h8a7.61,7.61,0,0,1,5.55,2,8.21,8.21,0,0,1,2.45,6.35V82.8a7.35,7.35,0,0,1-8,8.14Zm13.49-2a8.08,8.08,0,0,0,2.35-6.19V64.12a8.26,8.26,0,0,0-2.35-6.25A8,8,0,0,0,635.81,56H628V90.74h7.84A8.09,8.09,0,0,0,641.26,89ZM632,60h3.79a3.71,3.71,0,0,1,2.83,1,4.49,4.49,0,0,1,.92,3.1V82.8a3.89,3.89,0,0,1-1,3.09,3.69,3.69,0,0,1-2.7.8H632Zm3.79,26.47a3.89,3.89,0,0,0,2.6-.7,4.09,4.09,0,0,0,1-3V64.12a4.31,4.31,0,0,0-.85-3,3.45,3.45,0,0,0-2.7-1h-3.59V86.49Z"/><path d="M652.9,90.94h-4.45V55.78h4.45Zm-.2-.2V56h-4.05V90.74Z"/><path d="M662.24,70.21V90.94h-4.45V55.78h2.5l9.59,20.77V55.78h4.44V90.94h-2.49Zm-.2-.9,9.89,21.43h2.19V56h-4V77.45L660.19,56H658V90.74h4Z"/><path d="M681.37,89.39c-1.64-1.43-2.45-3.55-2.45-6.34V63.67a8.13,8.13,0,0,1,2.45-6.34,8.81,8.81,0,0,1,11.18,0,8.35,8.35,0,0,1,2.4,6.34V67h-4.44V63.67a4.37,4.37,0,0,0-.85-3,3.47,3.47,0,0,0-2.7-.95,3.57,3.57,0,0,0-2.72.93,4.17,4.17,0,0,0-.88,3V83.05a4.2,4.2,0,0,0,.88,3,3.57,3.57,0,0,0,2.72.92,3.44,3.44,0,0,0,2.7-1,4.34,4.34,0,0,0,.85-2.94V75.61h-3.65V71.16H695V83.05a8.16,8.16,0,0,1-2.4,6.34,8.81,8.81,0,0,1-11.18,0Zm11.08-.1a8.23,8.23,0,0,0,2.3-6.24V71.36h-7.69v4h3.65v7.64a4.39,4.39,0,0,1-.93,3.09,3.66,3.66,0,0,1-2.82,1,3.77,3.77,0,0,1-2.87-1,4.41,4.41,0,0,1-.93-3.12V63.67a4.41,4.41,0,0,1,.93-3.12,3.77,3.77,0,0,1,2.87-1,3.7,3.7,0,0,1,2.82,1,4.44,4.44,0,0,1,.93,3.1v3.09h4V63.67a8.47,8.47,0,0,0-2.3-6.25,8.92,8.92,0,0,0-11,0,8.23,8.23,0,0,0-2.35,6.25V83.05q0,4.14,2.35,6.24a8.88,8.88,0,0,0,11,0Z"/><path d="M722.47,90.94h-14V55.78h4.44V86.49h9.54Zm-.2-.2v-4h-9.54V56h-4V90.74Z"/><path d="M730.66,90.94h-4.44V55.78h4.44Zm-.2-.2V56h-4V90.74Z"/><path d="M746.89,78.7l8.69-22.92h2.55V90.94h-4.44V71.66l-5.6,15h-2.44l-5.6-15V90.94h-4.44V55.78h2.54Zm0,.6L738.05,56h-2.24V90.74h4V70.56l5.89,15.88H748l5.9-15.88V90.74h4V56h-2.25Z"/><path d="M767.52,90.94h-4.44V55.78h4.44Zm-.2-.2V56h-4V90.74Z"/><path d="M787.3,55.83v4.44h-5.89V90.94H777V60.27h-5.84V55.83Zm-.2.2H771.32v4h5.84V90.74h4.05V60.07h5.89Z"/><path d="M795.14,90.86a7.48,7.48,0,0,1-2.5-1.47C791,88,790.2,85.84,790.2,83.05V78.2h4.44v4.85a4.28,4.28,0,0,0,.85,2.94,3.42,3.42,0,0,0,2.7,1,3.57,3.57,0,0,0,2.72-.92,4.25,4.25,0,0,0,.87-3v-2.3a6,6,0,0,0-.35-2.27,6.12,6.12,0,0,0-.9-1.58,6.51,6.51,0,0,0-1.34-1.1c-.54-.33-1.24-.74-2.1-1.24-1.07-.6-1.94-1.14-2.62-1.6a9.4,9.4,0,0,1-1.88-1.7,9.28,9.28,0,0,1-2.39-6.64v-1a8.16,8.16,0,0,1,2.44-6.34,7.34,7.34,0,0,1,2.5-1.48,9.32,9.32,0,0,1,6.14,0,7.34,7.34,0,0,1,2.5,1.48,8.17,8.17,0,0,1,2.45,6.34V67h-4.45V63.67a4.22,4.22,0,0,0-.87-3,3.57,3.57,0,0,0-2.72-.93,3.46,3.46,0,0,0-2.7.95,4.31,4.31,0,0,0-.85,3v1a5.57,5.57,0,0,0,1.2,3.69,7.28,7.28,0,0,0,1.5,1.2c.63.4,1.26.78,1.9,1.15a26.32,26.32,0,0,1,2.57,1.55,10.74,10.74,0,0,1,2,1.8,9.54,9.54,0,0,1,2.45,6.74v2.3c0,2.79-.82,4.91-2.45,6.34a7.48,7.48,0,0,1-2.5,1.47,9.16,9.16,0,0,1-6.14,0Zm8.54-1.57q2.36-2.1,2.35-6.24v-2.3a9.39,9.39,0,0,0-2.4-6.64,9.83,9.83,0,0,0-1.92-1.73,29.75,29.75,0,0,0-2.57-1.52c-.9-.5-1.6-.92-2.1-1.27a6.7,6.7,0,0,1-1.3-1.18,5.44,5.44,0,0,1-1.3-3.79v-1a4.49,4.49,0,0,1,.92-3.1,3.71,3.71,0,0,1,2.83-1,3.79,3.79,0,0,1,2.87,1,4.46,4.46,0,0,1,.92,3.12v3.09h4V63.67a8.23,8.23,0,0,0-2.35-6.25,8.86,8.86,0,0,0-10.94,0,8.26,8.26,0,0,0-2.34,6.25v1a9.28,9.28,0,0,0,2.29,6.54,9.6,9.6,0,0,0,1.88,1.62c.68.45,1.55,1,2.62,1.58.86.5,1.56.92,2.1,1.27a7.62,7.62,0,0,1,1.39,1.17,5.91,5.91,0,0,1,.93,1.55,6.36,6.36,0,0,1,.37,2.4v2.3a4.46,4.46,0,0,1-.92,3.12,3.79,3.79,0,0,1-2.87,1,3.67,3.67,0,0,1-2.83-1,4.44,4.44,0,0,1-.92-3.09V78.4h-4v4.65q0,4.14,2.34,6.24a8.82,8.82,0,0,0,10.94,0Z"/><path class="cls-1" d="M8.29,148.3a8.12,8.12,0,0,1-5.79-2.05A8.61,8.61,0,0,1,0,139.71v-4.54H5.49v4.54a3.35,3.35,0,0,0,.75,2.5,3,3,0,0,0,2,.6,2.84,2.84,0,0,0,2.05-.6,3.24,3.24,0,0,0,.75-2.5v-2.2a5.26,5.26,0,0,0-1.85-4,16.61,16.61,0,0,0-2.1-1.3A19.56,19.56,0,0,1,3.7,130,11,11,0,0,1,1,126.38,10.39,10.39,0,0,1,0,122v-.85a8.63,8.63,0,0,1,2.5-6.54,8.12,8.12,0,0,1,5.79-2,8.12,8.12,0,0,1,5.79,2,8.63,8.63,0,0,1,2.5,6.54v3.05H11.09v-3.05a3.26,3.26,0,0,0-.75-2.5,2.84,2.84,0,0,0-2.05-.6,3,3,0,0,0-2,.6,3.35,3.35,0,0,0-.75,2.5V122a5.13,5.13,0,0,0,1.85,4,16.06,16.06,0,0,0,1.95,1.19,20.7,20.7,0,0,1,3.6,2.3,10.44,10.44,0,0,1,3.69,8.09v2.2a8.61,8.61,0,0,1-2.5,6.54A8.12,8.12,0,0,1,8.29,148.3Z"/><path class="cls-1" d="M29,148.3a8.16,8.16,0,0,1-5.8-2.05,8.64,8.64,0,0,1-2.49-6.54V121.13a8.66,8.66,0,0,1,2.49-6.54,8.16,8.16,0,0,1,5.8-2,8.15,8.15,0,0,1,5.79,2,8.63,8.63,0,0,1,2.5,6.54v18.58a8.61,8.61,0,0,1-2.5,6.54A8.15,8.15,0,0,1,29,148.3ZM29,118a2.94,2.94,0,0,0-2,.6,3.35,3.35,0,0,0-.75,2.5v18.58a3.35,3.35,0,0,0,.75,2.5,2.94,2.94,0,0,0,2,.6,2.81,2.81,0,0,0,2-.6,3.24,3.24,0,0,0,.75-2.5V121.13a3.26,3.26,0,0,0-.75-2.5A2.81,2.81,0,0,0,29,118Z"/><path class="cls-1" d="M58.93,112.94v35H55.74l-8.39-17.73V147.9h-5.5v-35h3.2l8.39,17.68V112.94Z"/><path class="cls-1" d="M71.82,148.3A8.35,8.35,0,0,1,66,146.25a8.81,8.81,0,0,1-2.5-6.54V121.13a8.81,8.81,0,0,1,2.5-6.54,8.35,8.35,0,0,1,5.79-2,8.12,8.12,0,0,1,5.79,2,8.63,8.63,0,0,1,2.5,6.54v3.1H74.62v-3.1a3.44,3.44,0,0,0-.7-2.5,3.06,3.06,0,0,0-2.1-.6,3,3,0,0,0-2,.6,3.35,3.35,0,0,0-.75,2.5v18.58a3.35,3.35,0,0,0,.75,2.5,3,3,0,0,0,2,.6,3.06,3.06,0,0,0,2.1-.6,3.42,3.42,0,0,0,.7-2.5v-6.54H71.87v-5.5h8.24v12a8.61,8.61,0,0,1-2.5,6.54A8.12,8.12,0,0,1,71.82,148.3Z"/><path class="cls-1" d="M92.45,148.3a8.16,8.16,0,0,1-5.8-2.05,8.65,8.65,0,0,1-2.5-6.54v-4.54h5.5v4.54a3.35,3.35,0,0,0,.75,2.5,2.94,2.94,0,0,0,2,.6,2.83,2.83,0,0,0,2-.6,3.24,3.24,0,0,0,.75-2.5v-2.2a5.22,5.22,0,0,0-1.85-4,15.46,15.46,0,0,0-2.09-1.3,19.33,19.33,0,0,1-3.45-2.2,11.17,11.17,0,0,1-2.75-3.64,10.39,10.39,0,0,1-.95-4.4v-.85a8.66,8.66,0,0,1,2.5-6.54,9.22,9.22,0,0,1,11.59,0,8.66,8.66,0,0,1,2.5,6.54v3.05h-5.5v-3.05a3.26,3.26,0,0,0-.75-2.5,2.83,2.83,0,0,0-2-.6,2.94,2.94,0,0,0-2,.6,3.35,3.35,0,0,0-.75,2.5V122a5.1,5.1,0,0,0,1.85,4,16.55,16.55,0,0,0,1.94,1.19,20.31,20.31,0,0,1,3.6,2.3,10.45,10.45,0,0,1,3.7,8.09v2.2a8.65,8.65,0,0,1-2.5,6.54A8.15,8.15,0,0,1,92.45,148.3Z"/><path class="cls-1" d="M116.27,112.94h5.49v35h-5.49V132.72h-5.6V147.9h-5.49v-35h5.49v14.28h5.6Z"/><path class="cls-1" d="M139.54,147.9l-1-5.54h-6.29l-1,5.54h-5.59l7-35h5.49l7,35Zm-6.34-11h4.39l-2.19-12.53Z"/><path class="cls-1" d="M166,112.94v35h-3.19l-8.39-17.73V147.9h-5.5v-35h3.2l8.39,17.68V112.94Z"/><path class="cls-1" d="M187.84,148.3a8.39,8.39,0,0,1-5.8-2.05,8.84,8.84,0,0,1-2.49-6.54V121.13a8.84,8.84,0,0,1,2.49-6.54,8.39,8.39,0,0,1,5.8-2,8.13,8.13,0,0,1,5.79,2,8.63,8.63,0,0,1,2.5,6.54v3.1h-5.5v-3.1a3.44,3.44,0,0,0-.69-2.5,3.06,3.06,0,0,0-2.1-.6,3,3,0,0,0-2.05.6,3.35,3.35,0,0,0-.75,2.5v18.58a3.35,3.35,0,0,0,.75,2.5,3,3,0,0,0,2.05.6,3.06,3.06,0,0,0,2.1-.6,3.43,3.43,0,0,0,.69-2.5v-4.49h5.5v4.49a8.61,8.61,0,0,1-2.5,6.54A8.13,8.13,0,0,1,187.84,148.3Z"/><path class="cls-1" d="M208.76,148.3a8.15,8.15,0,0,1-5.79-2.05,8.65,8.65,0,0,1-2.5-6.54V112.94H206v26.77a3.38,3.38,0,0,0,.7,2.5,3,3,0,0,0,2.09.6,2.94,2.94,0,0,0,2.05-.6,3.35,3.35,0,0,0,.75-2.5V112.94h5.5v26.77a8.85,8.85,0,0,1-2.5,6.54A8.38,8.38,0,0,1,208.76,148.3Z"/><path class="cls-1" d="M222.05,147.9v-35h5.49v29.47h9v5.49Z"/><path class="cls-1" d="M253.12,112.94v5.49h-5.6V147.9H242V118.43h-5.6v-5.49Z"/><path class="cls-1" d="M264.85,148.3a8.12,8.12,0,0,1-5.79-2.05,8.61,8.61,0,0,1-2.5-6.54V112.94h5.5v26.77a3.43,3.43,0,0,0,.69,2.5,3.06,3.06,0,0,0,2.1.6,3,3,0,0,0,2-.6,3.35,3.35,0,0,0,.75-2.5V112.94h5.49v26.77a8.84,8.84,0,0,1-2.49,6.54A8.39,8.39,0,0,1,264.85,148.3Z"/><path class="cls-1" d="M294.57,147.9H289l-2.85-14h-2.5v14h-5.49v-35h8.29a8.15,8.15,0,0,1,5.79,2.1,8.35,8.35,0,0,1,2.5,6.49v3.75a8.42,8.42,0,0,1-2.5,6.54,5.26,5.26,0,0,1-.8.65Zm-5.35-26.37a3.46,3.46,0,0,0-.74-2.5,3,3,0,0,0-2.05-.6h-2.8v9.94h2.8a3,3,0,0,0,2.05-.6,3.32,3.32,0,0,0,.74-2.49Z"/><path class="cls-1" d="M311.85,147.9l-1-5.54h-6.29l-1,5.54H298l7-35h5.49l7,35Zm-6.34-11h4.39l-2.2-12.53Z"/><path class="cls-1" d="M321.39,147.9v-35h5.49v29.47h9v5.49Z"/><path class="cls-1" d="M361.29,147.9l-1-5.54H354l-1,5.54h-5.59l7-35h5.5l7,35Zm-6.34-11h4.4l-2.2-12.53Z"/><path class="cls-1" d="M387.71,112.94v35h-3.19l-8.39-17.73V147.9h-5.5v-35h3.2l8.39,17.68V112.94Z"/><path class="cls-1" d="M401.05,147.9h-8.29v-35h8.29a8.15,8.15,0,0,1,5.79,2.1,8.35,8.35,0,0,1,2.5,6.49v18a10.35,10.35,0,0,1-.6,3.65,7.46,7.46,0,0,1-1.95,2.79A8.2,8.2,0,0,1,401.05,147.9Zm-2.8-5.49h2.8a3.15,3.15,0,0,0,2.1-.55,3.06,3.06,0,0,0,.7-2.35v-18a3.46,3.46,0,0,0-.75-2.5,3,3,0,0,0-2.05-.6h-2.8Z"/><path class="cls-1" d="M431,148.3a8.36,8.36,0,0,1-5.8-2.05,8.84,8.84,0,0,1-2.49-6.54V121.13a8.84,8.84,0,0,1,2.49-6.54,8.36,8.36,0,0,1,5.8-2,8.15,8.15,0,0,1,5.79,2,8.66,8.66,0,0,1,2.5,6.54v3.1h-5.5v-3.1a3.4,3.4,0,0,0-.7-2.5A3,3,0,0,0,431,118a2.94,2.94,0,0,0-2.05.6,3.35,3.35,0,0,0-.75,2.5v18.58a3.35,3.35,0,0,0,.75,2.5,2.94,2.94,0,0,0,2.05.6,3,3,0,0,0,2.09-.6,3.38,3.38,0,0,0,.7-2.5v-4.49h5.5v4.49a8.65,8.65,0,0,1-2.5,6.54A8.15,8.15,0,0,1,431,148.3Z"/><path class="cls-1" d="M460.28,147.9h-5.59l-2.85-14h-2.49v14h-5.5v-35h8.29a8.16,8.16,0,0,1,5.8,2.1,8.38,8.38,0,0,1,2.49,6.49v3.75a8.45,8.45,0,0,1-2.49,6.54,5.8,5.8,0,0,1-.8.65Zm-5.34-26.37a3.46,3.46,0,0,0-.75-2.5,3,3,0,0,0-2.05-.6h-2.79v9.94h2.79a3,3,0,0,0,2.05-.6,3.32,3.32,0,0,0,.75-2.49Z"/><path class="cls-1" d="M479.41,118.43h-9v8.79h6.19v5.5h-6.19v9.69h9v5.49H464.93v-35h14.48Z"/><path class="cls-1" d="M496.59,147.9l-1-5.54H489.3l-1,5.54h-5.59l7-35h5.49l7,35Zm-6.34-11h4.39l-2.19-12.53Z"/><path class="cls-1" d="M519.32,112.94v5.49h-5.6V147.9h-5.49V118.43h-5.6v-5.49Z"/><path class="cls-1" d="M523,147.9v-35h5.5v35Z"/><path class="cls-1" d="M542,136.56l4.15-23.62h5.59l-7,35h-5.5l-7-35h5.6Z"/><path class="cls-1" d="M570.06,118.43h-9v8.79h6.19v5.5h-6.19v9.69h9v5.49H555.57v-35h14.49Z"/><path class="cls-1" d="M589.19,147.9h-5.5v-35H592a8.16,8.16,0,0,1,5.8,2.1,8.38,8.38,0,0,1,2.49,6.49v3.8a8.45,8.45,0,0,1-2.49,6.54,8.2,8.2,0,0,1-5.8,2h-2.79Zm0-19.48H592a2.94,2.94,0,0,0,2-.6,3.31,3.31,0,0,0,.75-2.49v-3.8A3.46,3.46,0,0,0,594,119a2.94,2.94,0,0,0-2-.6h-2.79Z"/><path class="cls-1" d="M614.91,147.9l-1-5.54h-6.29l-1,5.54H601l7-35h5.49l7,35Zm-6.34-11H613l-2.2-12.53Z"/><path class="cls-1" d="M640.88,147.9h-5.59l-2.85-14h-2.5v14h-5.49v-35h8.29a8.15,8.15,0,0,1,5.79,2.1,8.35,8.35,0,0,1,2.5,6.49v3.75a8.42,8.42,0,0,1-2.5,6.54,5.26,5.26,0,0,1-.8.65Zm-5.35-26.37a3.46,3.46,0,0,0-.74-2.5,3,3,0,0,0-2-.6h-2.8v9.94h2.8a3,3,0,0,0,2-.6,3.32,3.32,0,0,0,.74-2.49Z"/><path class="cls-1" d="M656,129.52l7,18.38h-5.89l-4.24-11.19-1.9,4.35v6.84h-5.5v-35H651v14.18l6.09-14.18h5.94Z"/><path class="cls-1" d="M687.39,121.49l-.79,3.39H685v2.85q1.51,2.62,3.27,6-.84,1.49-1.56,3.12A34.81,34.81,0,0,0,685,132.7v15.47a12.77,12.77,0,0,0-1.67-.11,14.19,14.19,0,0,0-1.68.11V135.48a60.74,60.74,0,0,1-1.9,5.82,14.47,14.47,0,0,0-1.56-3.84,53.72,53.72,0,0,0,3.31-12.58h-1.9q-.42-1.75-.87-3.39h2.92v-6.57c0-.66,0-1.4-.11-2.21a21.78,21.78,0,0,0,3.61.23c.25,0,.38,0,.38.15s-.07.21-.23.31a1,1,0,0,0-.3.72v7.37Zm4,3.77c.86.3,1.88.6,3,.91.31.1.46.21.46.34s-.13.23-.38.38c-.38,2.15-.81,4.21-1.29,6.16.88-.31,1.73-.65,2.54-1q2.13,7.15,3.65,14.56a14.6,14.6,0,0,0-3.15,1.37c-.15-1.2-.33-2.35-.53-3.46-2.64.83-5.22,1.57-7.76,2.2-.1.26-.22.38-.38.38s-.19-.09-.26-.26a20.8,20.8,0,0,0-1.33-3.23l1-.16A84.47,84.47,0,0,0,691.38,125.26Zm-2.09-10.88a27.75,27.75,0,0,0,3,.57q.3,0,.3.27c0,.13-.13.24-.38.34q-.84,5.63-1.63,9.09-.89,3.72-2.13,7.52a12.71,12.71,0,0,0-2.25-2.73A31.06,31.06,0,0,0,688,123,61.79,61.79,0,0,0,689.29,114.38Zm1.26,28.4c.4-.13.8-.24,1.18-.34,1.36-.36,2.48-.68,3.34-1a70.32,70.32,0,0,0-2-7.94Q691.92,138.52,690.55,142.78Zm2.09-29h2.28a22.48,22.48,0,0,0,2.28-.11,60.91,60.91,0,0,0,1,7.86,38.68,38.68,0,0,0,2.5,7.64,17.14,17.14,0,0,0-2.85,2.63,83.07,83.07,0,0,1-3.19-14.94h-2.05a8.91,8.91,0,0,0,.15-1.56A7.83,7.83,0,0,0,692.64,113.74Z"/><path class="cls-1" d="M704.06,146.24a8.45,8.45,0,0,0,.23-1.87V120.58c0-.73,0-1.51-.11-2.32a16.15,16.15,0,0,0,3.68.31c.26,0,.38.05.38.15a.52.52,0,0,1-.19.34.67.67,0,0,0-.3.61V142Zm19,0H704.9l3.27-3.77h4.1V115.3c0-.76,0-1.57-.11-2.44a20.44,20.44,0,0,0,3.87.27c.26,0,.38.05.38.15a.44.44,0,0,1-.22.38.86.86,0,0,0-.31.69v28.12h3.77Zm-3-4.19V120.66c0-.74,0-1.5-.11-2.28a19.65,19.65,0,0,0,3.72.26c.23,0,.34,0,.34.15a.51.51,0,0,1-.19.35.7.7,0,0,0-.26.6v24.41a11,11,0,0,0,.22,2Z"/><path class="cls-1" d="M748.26,122.21h-2.43a47.48,47.48,0,0,1-3.27,14c-.4.86-.82,1.69-1.25,2.47a21.7,21.7,0,0,0,8.05,5.17,21.37,21.37,0,0,0-2.16,4.07,41.7,41.7,0,0,1-8.14-6.2A14.67,14.67,0,0,1,736.9,144a24.48,24.48,0,0,1-5.93,4,22.65,22.65,0,0,0-3-3.42,16.76,16.76,0,0,0,8.89-5.51l-.91-1.14q-3.49-5.06-5.4-13.91a12,12,0,0,0,3.35-.87A32.46,32.46,0,0,0,739,135.82a17.18,17.18,0,0,0,1.79-4.14,35.12,35.12,0,0,0,1.33-9.47H728.65l-.95-3.64h9.62A20.87,20.87,0,0,0,736,114a15.54,15.54,0,0,0,2.92-1.29,26.68,26.68,0,0,1,1.64,5.82h8.55Z"/><path class="cls-1" d="M758.24,113.24a18.22,18.22,0,0,0,1.86.08c.58,0,1.19,0,1.82-.08a29.14,29.14,0,0,0,4.57,7.23V117.2a15,15,0,0,0-.12-1.9,19,19,0,0,0,3.12.19q.3,0,.3.15a.33.33,0,0,1-.19.27.65.65,0,0,0-.23.53v24a9.12,9.12,0,0,0-1.44-.12,8.23,8.23,0,0,0-1.44.12V121.27a17.66,17.66,0,0,0-1.71,2.16q-.62-.77-1.11-1.44l-.19,1h-6.42c-.08-.33-.15-.62-.23-.88-.68,1-1.33,1.83-1.94,2.59.86,1,1.74,1.94,2.63,2.85v1.59h5.05v-1.67l2.7-2.93a8,8,0,0,0-.11,1.3v9a11.91,11.91,0,0,0,.07,1.29c-.89-1-1.77-2-2.66-3v-1.71h-5.05c0,.69-.06,1.37-.08,2.06h4.83c.81.88,1.58,1.76,2.32,2.62h-7.3c0,.63-.1,1.24-.15,1.82l2.5,2.59v3.84l-2.73,2.88a12.74,12.74,0,0,0,.07-1.4v-6.54a66,66,0,0,1-2.05,8.55,6.24,6.24,0,0,0-2.62-2.62,26.13,26.13,0,0,0,1.86-6.88,50.88,50.88,0,0,0,.65-8.85v-2.1c0-.86,0-1.68-.08-2.47-.4.43-.75.81-1,1.14a21.18,21.18,0,0,0-1-4Q755.39,119.78,758.24,113.24Zm4,13.92h-4.34q-1.24-1.34-2.58-2.7h9.39C763.93,125.34,763.1,126.24,762.27,127.16Zm-4.94,10.41h7.45l-2.59,2.81H760C759.14,139.45,758.24,138.51,757.33,137.57Zm2.69,6.88h2.21c.89.91,1.77,1.84,2.66,2.77h-7.45C758.28,146.29,759.14,145.36,760,144.45Zm-2-24.14h4.6c-.76-1.26-1.53-2.67-2.32-4.21C759.47,117.64,758.71,119.05,758,120.31Zm4.6,24V140.5c.91-1,1.82-2,2.74-2.93,0,.51-.08,1-.08,1.41v6.84a12.15,12.15,0,0,0,.08,1.4C764.39,146.24,763.48,145.27,762.57,144.34Zm7.87-31.13a19.27,19.27,0,0,0,3.15.19c.23,0,.35.07.35.23s-.11.22-.31.37v31.25a2.11,2.11,0,0,1-.57,1.56c-.48.38-2.09.73-4.83,1.06a14.61,14.61,0,0,0-1.06-3.84c1.32.08,2.31.12,3,.12.31,0,.46-.12.46-.35V114.54A7.87,7.87,0,0,0,770.44,113.21Z"/><path class="cls-1" d="M781.42,144.18h2.81a12.4,12.4,0,0,0-1.17-2.73,13.25,13.25,0,0,0,2.24-.65v-1.52a11.44,11.44,0,0,1-2.55,2.4,8.76,8.76,0,0,0-1.71-2.32V144l-3.19,3.42c0-.5.08-1,.08-1.63V115.45a11.11,11.11,0,0,0-.12-1.64c1.07,1.14,2.14,2.29,3.23,3.43v21.81a7.56,7.56,0,0,0,2.36-1.9,6.38,6.38,0,0,0,1.25-1.63H783.4c.83-.76,1.67-1.51,2.51-2.25h3.46c.83.71,1.64,1.44,2.43,2.17a.65.65,0,0,0,.15-.23c-.79-.73-1.58-1.45-2.39-2.16v-3.42c.91-.81,1.83-1.63,2.77-2.44a8.72,8.72,0,0,0-.07,1.14v6a5.72,5.72,0,0,0,0,.64,19.71,19.71,0,0,0,1.94,1.26l.15.11V117.24l3.2-3.43a14.19,14.19,0,0,0-.08,1.64v30.37a12.39,12.39,0,0,0,.11,1.63q-1.59-1.71-3.23-3.42v-2.77a6.83,6.83,0,0,0-1.75,1.94,23.29,23.29,0,0,1-2.58-2.74c.1.43.19.84.27,1.22a38.86,38.86,0,0,1-5.52,2.39.35.35,0,0,1-.07.11H794q1.49,1.63,3,3.27H778.46Zm-3.08-30.37H797c-1,1.1-2,2.18-3,3.27H781.42C780.41,116,779.38,114.91,778.34,113.81Zm14,8.18h-3.23v1.86h4.06l.58,2.39H781.65c.2-.78.43-1.58.68-2.39h4V122h-3l-.58-2.47h3.58v-.23a14.4,14.4,0,0,0-.12-1.79,22.85,22.85,0,0,0,3,.15c.18,0,.27.06.27.16a.31.31,0,0,1-.15.26.77.77,0,0,0-.19.57v.88h3.76Zm-9.43,13.53a8.74,8.74,0,0,0,.08-1.14v-6a7.63,7.63,0,0,0-.08-1.14c.94.84,1.86,1.65,2.78,2.44v3.42C784.8,133.83,783.88,134.66,782.94,135.52Zm6.39-6.08h-3.39q-1.29-1.11-2.58-2.25h8.51Zm-1.56,6.08v1.59a7.72,7.72,0,0,0,1.82-1.44,5.64,5.64,0,0,0,1,1.56,8.64,8.64,0,0,0,1.06-1.71Zm0,4.44a7.1,7.1,0,0,0,1.41-.72,15.89,15.89,0,0,1-1.41-2Zm4.41-1a12.57,12.57,0,0,0,2.2,1.86v-4.22a.57.57,0,0,1-.23.08C793.42,137.56,792.76,138.32,792.18,139Z"/><path class="cls-1" d="M822.38,118.38H806.72v23.07c0,.73.35,1.1,1.06,1.1h14.64l1.1,3.84H804.86c-1.22,0-1.83-.83-1.83-2.47V118.38h-1l-.95-3.73h22.16Zm-14.9,22.53a11.34,11.34,0,0,0,.07-1.25v-8.25a10,10,0,0,0-.07-1.29l2.62,2.74v5.24C809.24,139,808.37,140,807.48,140.91Zm4.07-8.24h-1.22c-.84-.84-1.66-1.69-2.47-2.55h6C813.09,131,812.31,131.83,811.55,132.67Zm-1.26,5.7h1.29c.76.86,1.54,1.71,2.32,2.54h-6Zm-1.37-9.58a13.3,13.3,0,0,0,.08-1.44V121a13.63,13.63,0,0,0-.08-1.41c1,1,2,2,3,3v3Q810.45,127.23,808.92,128.79Zm8.48-6.35h-5.21c-1-.93-1.9-1.87-2.81-2.81h10.79C819.21,120.57,818.29,121.51,817.4,122.44Zm-5.28,3.5h5.35l2.7,2.85H809.42Q810.74,127.35,812.12,125.94Zm-.35,12.16v-5.24c.89-.91,1.74-1.83,2.55-2.74a11.17,11.17,0,0,0-.08,1.29v8.25a10.1,10.1,0,0,0,.08,1.25C813.51,140,812.66,139.07,811.77,138.1Zm3.5,2.81a11.5,11.5,0,0,0,.08-1.25v-8.21a9.91,9.91,0,0,0-.08-1.29q1.29,1.41,2.55,2.7v5.24C817,139,816.13,140,815.27,140.91Zm4.1-8.21h-1.29l-2.47-2.54h6.2C821,131,820.16,131.87,819.37,132.7ZM818,138.37h1.37c.79.86,1.59,1.71,2.4,2.54h-6.16C816.46,140.08,817.26,139.23,818,138.37Zm-.38-12.7v-3c1-1,2-2,3-3a9.15,9.15,0,0,0-.12,1.41v6.31a8.39,8.39,0,0,0,.12,1.44Q819.19,127.23,817.66,125.67Zm2,12.43v-5.24l2.55-2.7a11.17,11.17,0,0,0-.08,1.29v8.21a10.1,10.1,0,0,0,.08,1.25C821.33,140,820.48,139.07,819.64,138.1Z"/></g></g></svg>