<svg xmlns="http://www.w3.org/2000/svg" viewBox="0 0 141.02 62"><defs><style>.cls-1{fill:#3e3a39;}.cls-2{fill:#fff;}</style></defs><title>資產 5</title><g id="圖層_2" data-name="圖層 2"><g id="圖層_1-2" data-name="圖層 1"><rect class="cls-1" width="141.02" height="62"/><path class="cls-2" d="M25,32.29h2.42v-5h4.05V42H29v2.46h8V42H34.45V27.28h4v5h2.43V24.83H25m66.54,2.45h2.78v12.8L85.71,24.83H79v2.45h2.81V42H76.9L71.41,27h2.45V24.83h-10V27H66.2L60.84,42H56.35l-3.47-7.14q4-1,4-4.9a5,5,0,0,0-1-3.11,4.54,4.54,0,0,0-2.43-1.64,16.65,16.65,0,0,0-4-.38h-8v2.45h2.7V42H41.6v2.46h8.17V42H47.26V35.28H50l4.47,9.18H66.2V42H63.81l1.5-4.44h7.08L73.84,42H71.4v2.46H87.05V42H84.24V27.9l9.42,16.75h3V27.28H99.6V24.83H91.54v2.45Zm-42,5.55H47.26V27.28h2.51a10.78,10.78,0,0,1,2.31.18,2.21,2.21,0,0,1,1.27.84,2.52,2.52,0,0,1,.52,1.62,2.89,2.89,0,0,1-.51,1.8,2.39,2.39,0,0,1-1.31.89,10.4,10.4,0,0,1-2.47.22m16.47,2.43L68.77,27H69l2.61,8.21H66.05Zm47.2.57a5.14,5.14,0,0,0-2-1.95,20.81,20.81,0,0,0-3.77-1.27,21.7,21.7,0,0,1-2.67-.79,2.51,2.51,0,0,1-1.11-.88,2.27,2.27,0,0,1-.44-1.38,2.3,2.3,0,0,1,.86-1.78,3.72,3.72,0,0,1,2.47-.74,4.76,4.76,0,0,1,4.17,2.27v1.37h2.4V24.73h-2.4V26a7.12,7.12,0,0,0-4.38-1.53A6,6,0,0,0,102.23,26a5,5,0,0,0-1.64,3.94,4.88,4.88,0,0,0,.76,2.76,5,5,0,0,0,2,1.79,22.15,22.15,0,0,0,3.91,1.34A9.83,9.83,0,0,1,110.37,37a2.34,2.34,0,0,1,.82,2,3,3,0,0,1-1,2.32,3.55,3.55,0,0,1-2.45.89q-2.85,0-4.61-3.2V37.32h-2.46v7.12h2.45V42.83a7.05,7.05,0,0,0,4.83,1.92,6.21,6.21,0,0,0,4.38-1.63A5.4,5.4,0,0,0,114.09,39a5.91,5.91,0,0,0-.84-3.15M41.84,11.65h1.24v2.79H41.84Zm8.66,0h2v2.79h-2Zm8.66,0H62v2.79h-2.8Zm8.66,0h3.57v2.79H67.82Zm8.66,0h4.35v2.79H76.48Zm8.66,0h5.13v2.79H85.14Zm8.66,0h5.91v2.79H93.8Z"/></g></g></svg>