<svg xmlns="http://www.w3.org/2000/svg" viewBox="0 0 324.88 477.16"><defs><style>.cls-1{fill:#fff;}</style></defs><title>寬325px</title><g id="圖層_2" data-name="圖層 2"><g id="圖層_1-2" data-name="圖層 1"><path class="cls-1" d="M28.29,104.47q-7.91-7.59-7.91-20.77V0H38.67V83.7q0,5.43,2,7.29c1.24,1.14,3.25,1.7,6,1.7s4.75-.56,5.89-1.7q2.18-2,2.17-7.29V0H73.08V83.7q0,12.87-7.9,20.77Q57.74,111,46.73,111T28.29,104.47Zm36-.93Q71.84,96,71.84,83.7V1.24H56V83.7q0,5.74-2.48,8.22-2.17,2-6.82,2c-3.2,0-5.53-.67-7-2s-2.33-4.19-2.33-8.22V1.24H21.62V83.7q0,12.72,7.6,19.84,6.66,6.21,17.51,6.2Q57.28,109.74,64.25,103.54Z"/><path class="cls-1" d="M129.66,109.74H83.47V0h18.29V91.45h27.9Zm-1.24-1.24V92.69h-27.9V1.24H84.71V108.5Z"/><path class="cls-1" d="M177.24,0V18.29H159.88v91.45H141.59V18.29H124.23V0ZM176,1.24H125.47V17.05h17.36V108.5h15.81V17.05H176Z"/><path class="cls-1" d="M236,109.74h-18.6l-8.84-43.55h-6.66v43.55H183.6V0H210q11.31,0,18.44,6.67A23.84,23.84,0,0,1,234,14.8a30.25,30.25,0,0,1,2.33,12.48V38.91A30.63,30.63,0,0,1,234,51.54a24,24,0,0,1-5.58,8.14l-2.32,1.86Zm-8.53-51a21.87,21.87,0,0,0,5.66-8.45,31.6,31.6,0,0,0,1.94-11.39V27.28q0-12.85-7.6-19.68Q220.65,1.24,210,1.24H184.84V108.5h15.81V65h8.83l8.84,43.55h16.12l-9.61-47.58A11.68,11.68,0,0,0,227.46,58.75ZM216.77,47.12q-2.18,2-6.82,2h-9.3V17.05H210q4.65,0,6.82,2,2.47,2.79,2.48,8.21V38.91Q219.25,44.64,216.77,47.12ZM218,27.28q0-5.12-2.17-7.28Q214,18.29,210,18.29h-8.06V47.9H210q4,0,5.89-1.71,2.17-2,2.17-7.28Z"/><path class="cls-1" d="M284.5,109.74l-3.1-17.2H262.8l-3.1,17.2H241.1L263.11,0h18l22,109.74Zm.93-1.24h16.12L280.16,1.24H264L242.65,108.5h16.12l3.1-17.2h20.46Zm-20.92-33L272.1,32.4l7.6,43.09Zm1.55-1.24h12.09l-6-34.72Z"/><path class="cls-1" d="M35,231.39V122.88h17v91.46H80v17Z"/><path class="cls-1" d="M88.2,231.39V122.88h17V231.39Z"/><path class="cls-1" d="M142,232.63q-10.84,0-18-6.36-7.75-7.74-7.75-20.3V148.3q0-12.56,7.75-20.3,7.13-6.36,18-6.36,11.16,0,18,6.36,7.75,7.44,7.75,20.3v9.62H150.66V148.3q0-5.73-2.17-7.75-2-1.86-6.51-1.86c-2.9,0-5,.62-6.36,1.86q-2.33,2.17-2.32,7.75V206q0,5.58,2.32,7.75c1.35,1.24,3.46,1.86,6.36,1.86s5.17-.62,6.51-1.86,2.17-3.93,2.17-7.75V185.66h-8.53v-17h25.58V206q0,12.85-7.75,20.3Q153.14,232.63,142,232.63Z"/><path class="cls-1" d="M213.28,122.88h17.05V231.39H213.28V184.27H195.92v47.12h-17V122.88h17v44.33h17.36Z"/><path class="cls-1" d="M289.85,122.88v17.05H272.49v91.46H255.44V139.93H238.08V122.88Z"/><path class="cls-1" d="M28.29,349q-7.91-7.59-7.91-20.77v-83.7H38.67v83.7q0,5.43,2,7.29,1.86,1.69,6,1.7t5.89-1.7c1.45-1.35,2.17-3.77,2.17-7.29v-83.7H73.08v83.7q0,12.87-7.9,20.77-7.44,6.51-18.45,6.51T28.29,349Zm36-.93q7.59-7.59,7.59-19.84V245.77H56v82.46q0,5.73-2.48,8.22-2.17,2-6.82,2c-3.2,0-5.53-.67-7-2s-2.33-4.19-2.33-8.22V245.77H21.62v82.46q0,12.72,7.6,19.84,6.66,6.21,17.51,6.2Q57.28,354.27,64.25,348.07Z"/><path class="cls-1" d="M129.66,354.27H83.47V244.53h18.29V336h27.9ZM128.42,353V337.22h-27.9V245.77H84.71V353Z"/><path class="cls-1" d="M177.24,244.53v18.29H159.88v91.45H141.59V262.82H124.23V244.53ZM176,245.77H125.47v15.81h17.36V353h15.81V261.58H176Z"/><path class="cls-1" d="M236,354.27h-18.6l-8.84-43.56h-6.66v43.56H183.6V244.53H210q11.31,0,18.44,6.66a24,24,0,0,1,5.58,8.14,30.22,30.22,0,0,1,2.33,12.48v11.62A30.68,30.68,0,0,1,234,296.07a24,24,0,0,1-5.58,8.14l-2.32,1.86Zm-8.53-51a21.87,21.87,0,0,0,5.66-8.45,31.62,31.62,0,0,0,1.94-11.4V271.81q0-12.87-7.6-19.69-6.81-6.35-17.51-6.35H184.84V353h15.81V309.48h8.83L218.32,353h16.12l-9.61-47.58A12,12,0,0,0,227.46,303.28Zm-10.69-11.63c-1.45,1.34-3.72,2-6.82,2h-9.3V261.58H210q4.65,0,6.82,2,2.47,2.79,2.48,8.22v11.62Q219.25,289.17,216.77,291.65ZM218,271.81q0-5.12-2.17-7.29-1.86-1.69-5.89-1.7h-8.06v29.6H210c2.69,0,4.65-.56,5.89-1.7q2.17-2,2.17-7.29Z"/><path class="cls-1" d="M284.5,354.27l-3.1-17.2H262.8l-3.1,17.2H241.1l22-109.74h18l22,109.74Zm.93-1.24h16.12L280.16,245.77H264L242.65,353h16.12l3.1-17.2h20.46Zm-20.92-33,7.59-43.1,7.6,43.1Zm1.55-1.24h12.09l-6-34.73Z"/><path class="cls-1" d="M25.73,475.92H0V367.41H23.41q11,0,17.82,6a21,21,0,0,1,5.89,8.68,30.38,30.38,0,0,1,2,11.47v10.07q0,11-6.2,16.74,8.52,6,8.52,19.53v9.92a28.48,28.48,0,0,1-2,11.32,21.05,21.05,0,0,1-5.89,8.68Q36.89,475.92,25.73,475.92Zm-8.68-62.63h6.36q4.34,0,6.35-1.86,2.32-2.32,2.33-7.75V393.61c0-3.51-.73-6-2.17-7.44q-1.86-1.71-6.51-1.71H17.05Zm0,45.57h8.68c3.1,0,5.27-.56,6.51-1.7q2.17-2,2.17-7.29V440q0-5.58-2.32-7.75-2-1.86-6.36-1.86H17.05Z"/><path class="cls-1" d="M112.69,475.92H95.33l-8.84-43.56H78.74v43.56h-17V367.41H87.42q11,0,18,6.51,7.75,7.14,7.75,20.15V405.7q0,13.17-7.75,20.3a15.68,15.68,0,0,1-2.48,2ZM96.1,394.07c0-3.61-.77-6.2-2.32-7.75q-2-1.86-6.36-1.86H78.74v30.85h8.68q4.33,0,6.36-1.86,2.32-2.18,2.32-7.75Z"/><path class="cls-1" d="M123.23,475.92V367.41h17V475.92Z"/><path class="cls-1" d="M177,477.16q-10.84,0-18-6.36-7.75-7.76-7.75-20.31V392.83q0-12.56,7.75-20.3,7.13-6.36,18-6.36,11.16,0,18,6.36,7.75,7.44,7.75,20.3v9.61H185.69v-9.61q0-5.73-2.17-7.75-2-1.86-6.51-1.86-4.33,0-6.36,1.86c-1.54,1.45-2.32,4-2.32,7.75v57.66c0,3.72.78,6.31,2.32,7.75q2,1.86,6.36,1.86,4.5,0,6.51-1.86,2.17-2,2.17-7.75v-20.3h-8.53V413.14h25.58v37.35q0,12.87-7.75,20.31Q188.17,477.16,177,477.16Z"/><path class="cls-1" d="M248.31,367.41h17.05V475.92H248.31V428.79H231v47.13h-17V367.41h17v44.33h17.36Z"/><path class="cls-1" d="M324.88,367.41v17H307.52v91.46h-17V384.46H273.11v-17Z"/></g></g></svg>