<svg xmlns="http://www.w3.org/2000/svg" viewBox="0 0 676.99 634.06"><title>液體</title><g id="圖層_2" data-name="圖層 2"><g id="圖層_1-2" data-name="圖層 1"><path d="M0,0S2.12,37.38,6.18,43s16.28,24.41,16.28,42-4.75,61.25-4.75,76.17S24.49,199,29,201.47s10.39,2.38,12.66-5,0-14.47,0-23.28-.47-22.61,1-27.35S44.15,130.5,44.15,123s2.26-21.92,2.26-29.61.91-19,9.5-21.92,17.85-2.94,21.47,5.65S86,95,83,101.46s-2.49,11.41,7.23,27.46,19,38.3,30.56,56.66,17.36,41.43,24.81,56.34,8.82,38.88,6.56,55.6-5,33.91-3.17,60.12,6.33,35.71,6.33,39.78-7,32.55-8.36,49.95-1.13,36.16,5.65,42.49,23.51,2.71,24.41-8.81-6.78-11.3-5.2-38.2,9-9.27,6.56-45.88-4.3-51.31-4.3-66.9,4.07-24.86,23.51-29.83,10.17,49.49,10.85,59.66,1.43,34.36,1.62,52.89-3.35,30.29,0,47.46,7,19,4,47.69,4.06,30.51,4.06,41.14-.71,23.49-1.26,43.16-3.71,33.23,5.56,39.78,26.22-3.16,24.41-22.6-4.75-39.78-5.88-62.6-2-45-3.84-61.93-3.62-36.84-2.94-54,.45-40.45.68-58.54,3.88-27.8,12.11-35.93,24.28-14,38.74-7,24.64,12.88,24.64,35.94-2,51.53-3.62,73-4.29,48.37,11.75,48.82,16.05-14,14.92-37.75-2.26-51.3,2.49-63.51,14.91-22.37,22.37-36.38,3.62-12.89,8.59-23.06a204.1,204.1,0,0,0,8.59-20.79s9-1.81,14.92-8.36,6.33-7.69,6.33-7.69,9.95,4.95,9.95,26.32S406,351.09,418,351.31s14.92-9.71,14.47-26.89S434.93,288.93,441,286s39.78-10.4,58.09-32.55,14-38.42,19.44-47.24,14.69-29.6,22.82-45,18.09-32.1,28.26-43.85,21-33.69,54.24-61.7S676.09,13.25,677,0Z"/></g></g></svg>