<svg xmlns="http://www.w3.org/2000/svg" viewBox="0 0 40.89 40.88"><defs><style>.cls-1{fill:#3e3a39;}</style></defs><title>flickr</title><g id="圖層_2" data-name="圖層 2"><g id="圖層_1-2" data-name="圖層 1"><path class="cls-1" d="M20.44,0A20.44,20.44,0,1,0,40.89,20.43,20.44,20.44,0,0,0,20.44,0ZM13.3,25.59A5.66,5.66,0,0,1,7.6,20a6.16,6.16,0,0,1,.05-.75,5.72,5.72,0,0,1,10.83-1.6A5.58,5.58,0,0,1,19,20,5.66,5.66,0,0,1,13.3,25.59Zm14.3,0a5.62,5.62,0,1,1,5.68-6.07c0,.15,0,.3,0,.45A5.66,5.66,0,0,1,27.6,25.58Z"/></g></g></svg>