<svg xmlns="http://www.w3.org/2000/svg" viewBox="0 0 40.89 40.88"><defs><style>.cls-1{fill:#3e3a39;}</style></defs><title>Instagram</title><g id="圖層_2" data-name="圖層 2"><g id="圖層_1-2" data-name="圖層 1"><path class="cls-1" d="M29.68,13.9a3.55,3.55,0,0,0-.88-1.36,3.74,3.74,0,0,0-1.36-.89,6.65,6.65,0,0,0-2.2-.4c-1.25-.06-1.62-.07-4.78-.07s-3.53,0-4.77.07a6.78,6.78,0,0,0-2.2.41,3.87,3.87,0,0,0-2.24,2.24,6.85,6.85,0,0,0-.41,2.2c-.05,1.25-.06,1.62-.06,4.77s0,3.53.07,4.78a6.2,6.2,0,0,0,.41,2.19,3.55,3.55,0,0,0,.88,1.36,3.74,3.74,0,0,0,1.36.89,6.59,6.59,0,0,0,2.2.4c1.24.06,1.62.07,4.77.07s3.53,0,4.78-.07a6.85,6.85,0,0,0,2.2-.41,4,4,0,0,0,2.24-2.24,6.65,6.65,0,0,0,.4-2.2c.06-1.25.07-1.62.07-4.78s0-3.52-.07-4.77A6.44,6.44,0,0,0,29.68,13.9Zm-9.21,13a6.07,6.07,0,1,1,6.07-6.07A6.07,6.07,0,0,1,20.47,26.94Zm6.31-11a1.42,1.42,0,1,1,1.41-1.42A1.42,1.42,0,0,1,26.78,16Z"/><path class="cls-1" d="M20.47,16.93a3.94,3.94,0,1,0,3.94,3.94A3.94,3.94,0,0,0,20.47,16.93Z"/><path class="cls-1" d="M20.44,0A20.44,20.44,0,1,0,40.89,20.43,20.44,20.44,0,0,0,20.44,0ZM32.22,25.74a8.63,8.63,0,0,1-.55,2.87,6,6,0,0,1-3.45,3.45,8.29,8.29,0,0,1-2.87.55c-1.26.06-1.67.08-4.88.08s-3.61,0-4.87-.07a8.78,8.78,0,0,1-2.87-.55,5.63,5.63,0,0,1-2.09-1.36,5.82,5.82,0,0,1-1.37-2.09,8.78,8.78,0,0,1-.55-2.87c-.06-1.26-.07-1.66-.07-4.87s0-3.62.07-4.88a8.66,8.66,0,0,1,.54-2.87A6,6,0,0,1,10.63,11a5.63,5.63,0,0,1,2.09-1.36,8.5,8.5,0,0,1,2.87-.56c1.26,0,1.66-.07,4.87-.07s3.62,0,4.88.07a8.84,8.84,0,0,1,2.87.55A5.79,5.79,0,0,1,30.3,11a6,6,0,0,1,1.37,2.09A8.78,8.78,0,0,1,32.22,16c.05,1.26.07,1.66.07,4.87S32.28,24.48,32.22,25.74Z"/></g></g></svg>