<svg xmlns="http://www.w3.org/2000/svg" viewBox="0 0 40.89 40.88"><defs><style>.cls-1{fill:#3e3a39;}</style></defs><title>Medium</title><g id="圖層_2" data-name="圖層 2"><g id="圖層_1-2" data-name="圖層 1"><path class="cls-1" d="M20.44,0A20.44,20.44,0,1,0,40.89,20.43,20.44,20.44,0,0,0,20.44,0ZM31.52,29.48c-.66,0-1.32,0-2,0H24.09c-.51,0-.53,0-.53-.54s0-1.05,0-1.58c0-.3.12-.4.4-.39s.66,0,1,0,.49-.1.48-.46q0-3,0-6.09c0-1.53,0-3.06,0-4.59a5.73,5.73,0,0,0-.07-.58h-.11a.8.8,0,0,0-.12.22q-.76,2.67-1.51,5.35c-.35,1.25-.69,2.5-1.05,3.75-.41,1.44-.83,2.88-1.26,4.31-.17.55-.25.61-.81.6H18.4a.44.44,0,0,1-.48-.4c-.24-1-.52-1.93-.78-2.9s-.5-1.87-.76-2.81l-.72-2.63c-.27-1-.55-1.94-.81-2.92-.13-.49-.23-1-.35-1.49,0-.07-.07-.13-.21-.2a6.39,6.39,0,0,0-.09.75v9.68c0,.3.12.44.42.42s.5,0,.75,0,.44.12.44.42c0,.58,0,1.16,0,1.74,0,.26-.13.37-.4.37h-6c-.33,0-.45-.12-.43-.45,0-.55,0-1.11,0-1.66,0-.29.09-.42.38-.41a4.51,4.51,0,0,0,.52,0,.9.9,0,0,0,1-1V24.44c0-3,0-6,0-9,0-.92-.3-1.21-1.21-1.17-.65,0-.66,0-.66-.64s0-1.18,0-1.78c0-.29.11-.39.39-.39q3.81,0,7.6,0c.41,0,.57.17.67.55.5,1.91,1,3.81,1.53,5.72l1,3.66a2.58,2.58,0,0,0,.14.39h.1a2.3,2.3,0,0,0,.15-.32l1.14-4.24c.35-1.34.69-2.69,1-4a11.2,11.2,0,0,1,.4-1.4.69.69,0,0,1,.51-.31c.66,0,1.32,0,2,0l6.05,0c.27,0,.37.12.37.38,0,.68,0,1.37,0,2.05,0,.3-.12.41-.4.4a3.37,3.37,0,0,0-.55,0,.84.84,0,0,0-.91.92c0,.64,0,1.29,0,1.93q0,4.38,0,8.74c0,.88.28,1.17,1.14,1.17h.28c.32,0,.46.11.45.43,0,.54,0,1.09,0,1.62C32,29.36,31.87,29.49,31.52,29.48Z"/></g></g></svg>