<svg xmlns="http://www.w3.org/2000/svg" viewBox="0 0 40.89 40.88"><defs><style>.cls-1{fill:#3e3a39;}</style></defs><title>Twitter</title><g id="圖層_2" data-name="圖層 2"><g id="圖層_1-2" data-name="圖層 1"><path class="cls-1" d="M20.44,0A20.44,20.44,0,1,0,40.89,20.43,20.44,20.44,0,0,0,20.44,0ZM31.11,16.76A13.41,13.41,0,0,1,10.49,28.67a9.48,9.48,0,0,0,7-2,4.72,4.72,0,0,1-4.41-3.27,4.75,4.75,0,0,0,2.13-.08,4.71,4.71,0,0,1-3.78-4.68,4.65,4.65,0,0,0,2.13.59A4.72,4.72,0,0,1,12.08,13,13.41,13.41,0,0,0,21.8,17.9a4.71,4.71,0,0,1,8-4.3,9.67,9.67,0,0,0,3-1.15,4.72,4.72,0,0,1-2.07,2.61,9.54,9.54,0,0,0,2.71-.74A9.73,9.73,0,0,1,31.11,16.76Z"/></g></g></svg>